<?xml version="1.0" standalone="no"?>
<!DOCTYPE svg PUBLIC "-//W3C//DTD SVG 20010904//EN"
 "http://www.w3.org/TR/2001/REC-SVG-20010904/DTD/svg10.dtd">
<svg version="1.0" xmlns="http://www.w3.org/2000/svg"
 width="200.000000pt" height="200.000000pt" viewBox="0 0 200.000000 200.000000"
 preserveAspectRatio="xMidYMid meet">
<metadata>
Created by potrace 1.11, written by Peter Selinger 2001-2013
</metadata>
<g transform="translate(0.000000,200.000000) scale(0.100000,-0.100000)"
fill="#000000" stroke="none">
<path d="M892 1950 c-338 -48 -595 -228 -741 -519 -80 -158 -96 -228 -96 -411
1 -131 4 -168 24 -240 49 -177 135 -323 259 -442 123 -118 230 -181 392 -233
71 -23 109 -28 233 -32 203 -7 328 18 492 102 356 182 563 575 506 963 -38
256 -194 504 -411 652 -190 129 -442 190 -658 160z m313 -46 c153 -29 303
-107 426 -222 101 -94 160 -174 214 -287 75 -158 104 -320 85 -481 -22 -179
-84 -332 -194 -470 -139 -176 -322 -286 -558 -335 -291 -60 -616 41 -830 258
-113 114 -180 231 -234 409 -24 78 -27 106 -28 229 0 115 4 155 22 224 43 160
117 293 226 409 220 232 535 329 871 266z"/>
<path d="M888 1890 c-323 -51 -572 -237 -703 -524 -48 -105 -66 -188 -72 -317
-19 -431 269 -802 705 -905 146 -35 371 -16 529 46 97 37 258 145 323 217 237
259 306 621 175 926 -55 129 -95 187 -200 293 -138 139 -260 209 -436 249 -89
20 -244 27 -321 15z m245 -21 c281 -41 536 -224 660 -474 62 -124 97 -263 97
-386 0 -138 -50 -316 -127 -449 -57 -98 -209 -244 -313 -302 -153 -84 -339
-126 -498 -114 -407 31 -724 310 -806 708 -66 320 75 668 350 864 177 127 421
185 637 153z"/>
<path d="M935 1776 c0 -71 -17 -76 -28 -8 -7 42 -12 52 -28 52 -15 0 -19 -5
-16 -17 3 -10 8 -35 12 -55 7 -44 34 -64 65 -48 22 12 22 13 22 80 1 31 -4 46
-13 48 -11 2 -14 -10 -14 -52z"/>
<path d="M983 1815 c-3 -9 -2 -19 2 -23 4 -4 10 -1 12 6 3 6 9 12 15 12 7 0 9
-19 5 -55 -5 -53 -5 -55 19 -55 21 0 24 4 19 21 -4 11 -4 37 0 56 6 32 7 34
20 17 16 -23 29 -13 20 15 -5 18 -15 21 -56 21 -36 0 -51 -4 -56 -15z"/>
<path d="M1120 1792 c0 -15 -4 -43 -10 -61 -5 -19 -8 -36 -7 -37 2 -2 21 -6
43 -10 34 -5 42 -3 48 11 8 23 -1 32 -16 17 -18 -18 -28 -15 -28 8 0 11 7 20
15 20 8 0 15 7 15 15 0 8 -4 15 -10 15 -5 0 -10 7 -10 15 0 17 16 20 25 5 9
-15 25 -12 25 4 0 14 -29 26 -67 26 -18 0 -23 -6 -23 -28z"/>
<path d="M770 1798 c-44 -12 -54 -22 -46 -45 7 -17 8 -17 22 2 13 17 16 18 24
5 6 -8 13 -32 16 -52 7 -38 17 -45 43 -29 11 7 12 13 4 23 -15 19 -32 75 -26
82 4 3 12 1 20 -6 17 -14 25 -6 17 16 -7 18 -22 19 -74 4z"/>
<path d="M662 1762 c-9 -6 -7 -18 8 -50 11 -22 20 -48 20 -56 0 -21 15 -27 34
-13 15 11 15 15 -4 52 -11 21 -20 47 -20 57 0 19 -16 23 -38 10z"/>
<path d="M1290 1733 c-26 -33 -23 -71 7 -90 21 -14 25 -13 53 15 31 32 39 69
18 90 -20 20 -55 13 -78 -15z m60 -3 c0 -18 -30 -70 -40 -70 -13 0 -13 4 4 45
14 33 36 48 36 25z"/>
<path d="M572 1713 c-32 -19 -42 -31 -40 -47 3 -20 23 -26 23 -7 0 5 3 12 6
16 9 8 49 -49 49 -69 0 -19 5 -20 31 -6 18 10 17 12 -11 52 -35 48 -38 62 -10
53 22 -7 27 7 8 23 -9 7 -25 3 -56 -15z"/>
<path d="M1410 1694 c-6 -15 -19 -39 -30 -54 -14 -20 -16 -30 -8 -38 17 -17
26 -15 33 8 4 12 14 19 23 18 13 -2 16 3 14 25 -3 29 6 35 26 15 6 -6 15 -8
19 -4 8 8 -44 56 -60 56 -4 0 -12 -12 -17 -26z"/>
<path d="M472 1640 c-41 -38 -21 -70 42 -70 40 0 41 -14 2 -22 -17 -3 -17 -5
-4 -16 12 -10 20 -8 42 9 30 24 32 32 9 54 -11 12 -26 15 -50 12 -24 -4 -33
-2 -33 9 0 8 9 14 21 14 11 0 19 5 17 12 -7 20 -23 19 -46 -2z"/>
<path d="M922 1650 c-258 -36 -463 -208 -548 -460 -14 -42 -19 -84 -19 -175 0
-104 4 -131 28 -202 95 -283 366 -463 670 -445 95 6 64 17 -51 18 -179 1 -314
57 -443 184 -176 173 -233 421 -150 648 101 278 374 446 672 412 464 -53 715
-555 473 -946 -24 -40 -73 -99 -108 -132 -70 -65 -201 -138 -268 -148 -37 -6
-64 -24 -35 -24 27 0 160 50 215 81 82 46 189 159 235 246 99 190 102 414 6
593 -131 246 -405 387 -677 350z"/>
<path d="M1547 1613 c-12 -11 -8 -23 8 -23 25 0 17 -17 -22 -49 -35 -29 -36
-32 -21 -47 15 -15 19 -14 48 20 33 37 54 47 44 21 -4 -8 -1 -15 5 -15 27 0
22 33 -10 66 -34 35 -41 39 -52 27z"/>
<path d="M977 1571 c-13 -37 -24 -40 -29 -8 -2 16 -11 23 -30 25 -25 3 -28 0
-28 -25 0 -33 19 -65 26 -46 3 7 11 10 18 7 7 -3 24 0 38 5 17 6 29 6 37 -2
18 -18 25 0 11 33 -18 43 -29 46 -43 11z"/>
<path d="M404 1578 c-4 -6 4 -19 17 -29 l24 -19 -44 2 c-46 3 -68 -15 -32 -27
11 -3 34 -19 52 -35 17 -17 35 -27 40 -24 15 9 10 22 -11 29 -33 11 -22 24 15
18 19 -3 35 -2 35 3 0 18 -89 94 -96 82z"/>
<path d="M833 1573 c-17 -6 -16 -45 1 -69 20 -26 43 -6 27 24 -6 11 -8 28 -5
36 6 16 0 19 -23 9z"/>
<path d="M1116 1558 c-20 -28 -20 -42 -1 -34 8 3 19 -2 23 -11 7 -11 24 -16
53 -17 41 -1 44 1 47 26 4 37 -35 60 -55 32 -7 -10 -14 -23 -14 -28 -1 -6 -4
2 -8 18 -8 38 -25 43 -45 14z m98 -33 c-4 -8 -10 -15 -15 -15 -4 0 -6 7 -3 15
4 8 10 15 15 15 4 0 6 -7 3 -15z"/>
<path d="M755 1539 c-7 -11 13 -69 24 -69 11 0 33 59 26 70 -8 13 -42 13 -50
-1z"/>
<path d="M695 1508 c-8 -21 1 -38 21 -38 8 0 14 -4 14 -10 0 -5 7 -10 16 -10
21 0 14 30 -11 44 -11 6 -23 15 -27 21 -4 5 -10 2 -13 -7z"/>
<path d="M1647 1506 c-3 -8 -24 -25 -46 -38 -23 -13 -41 -25 -41 -28 1 -3 11
-18 24 -34 16 -19 30 -27 40 -23 21 8 21 27 0 27 -9 0 -14 6 -12 12 3 7 13 13
24 13 10 0 19 6 19 14 0 8 6 16 13 19 6 2 12 -3 12 -12 0 -9 7 -16 15 -16 20
0 19 6 -6 46 -22 37 -34 42 -42 20z"/>
<path d="M1297 1482 c-21 -23 -21 -32 -2 -32 8 0 15 -5 15 -10 0 -20 38 -52
57 -48 10 2 18 12 18 23 1 11 4 25 8 32 10 16 -11 27 -27 13 -8 -6 -12 -20 -9
-31 4 -15 2 -18 -11 -13 -11 4 -14 13 -10 33 10 42 10 45 -7 48 -8 2 -23 -5
-32 -15z"/>
<path d="M640 1458 c0 -57 22 -88 33 -48 3 13 10 18 21 14 27 -10 18 13 -13
35 -37 26 -41 26 -41 -1z"/>
<path d="M306 1453 c-4 -10 -3 -19 3 -21 5 -2 28 -17 51 -33 39 -29 60 -31 60
-6 0 7 -22 25 -48 42 -62 39 -59 38 -66 18z"/>
<path d="M918 1452 c-38 -5 -109 -77 -142 -144 -23 -47 -26 -63 -20 -105 5
-40 2 -58 -15 -91 -26 -50 -26 -68 -3 -81 15 -8 22 -33 22 -81 0 -171 1 -174
75 -167 27 2 58 8 68 12 36 15 16 -30 -29 -63 -82 -60 -134 -155 -114 -208 14
-35 25 -29 26 14 1 78 79 182 137 182 14 0 18 -5 14 -20 -3 -11 -1 -20 4 -20
17 0 27 37 24 90 -4 52 -3 55 36 88 22 19 46 47 54 62 14 26 17 28 49 18 19
-6 32 -16 30 -23 -3 -6 1 -25 7 -41 7 -16 11 -40 10 -53 -2 -15 1 -21 8 -17 6
4 11 0 11 -8 0 -9 7 -16 15 -16 8 0 15 -9 15 -20 0 -11 5 -20 10 -20 6 0 10
-4 10 -9 0 -6 -15 -7 -34 -4 -61 10 -101 -13 -208 -118 -55 -55 -111 -102
-124 -105 -26 -7 -33 -24 -10 -24 8 0 16 -5 18 -11 8 -24 77 4 154 62 73 55
171 99 223 99 9 0 27 7 39 16 36 25 29 72 -19 133 -23 29 -48 69 -55 89 -13
36 -12 38 21 65 47 39 72 83 80 144 5 39 3 61 -9 84 -9 18 -16 38 -16 45 0 30
-63 134 -103 171 -45 41 -49 43 -197 72 -19 3 -47 5 -62 3z m27 -32 c8 -13 -5
-13 -25 0 -13 8 -13 10 2 10 9 0 20 -4 23 -10z m85 -16 c17 -17 31 -23 46 -20
29 8 54 -2 54 -20 0 -8 4 -14 8 -14 5 0 8 -10 6 -22 -1 -13 -3 -28 -3 -35 -1
-6 -10 -9 -21 -6 -28 7 -25 -15 3 -26 12 -5 35 -23 52 -40 l29 -32 -32 16
c-18 9 -49 32 -69 51 -42 40 -47 41 -38 12 7 -22 6 -22 -7 -4 -10 12 -17 15
-22 8 -3 -6 5 -23 19 -39 19 -22 27 -25 33 -15 7 11 12 10 26 -3 9 -9 16 -20
16 -23 0 -4 14 -22 30 -41 17 -18 28 -37 25 -42 -10 -15 -25 -10 -25 7 0 28
-39 72 -71 79 -17 4 -40 16 -51 27 -11 11 -22 17 -25 14 -11 -11 27 -54 54
-61 32 -8 53 -23 53 -38 0 -5 -8 -3 -18 6 -10 10 -28 17 -40 17 -30 0 -59 42
-73 107 -10 42 -20 61 -46 82 -36 28 -46 58 -15 46 9 -3 32 -8 51 -11 l35 -4
-24 25 c-22 24 -23 25 -3 25 11 0 30 -11 43 -26z m-94 -86 c4 -13 7 -29 6 -35
-2 -7 2 -13 9 -13 8 0 8 -5 -2 -16 -10 -13 -10 -17 0 -24 9 -5 10 -10 2 -14
-21 -13 -12 -27 10 -16 11 7 23 9 26 7 2 -3 -5 -10 -16 -17 -19 -10 -20 -12
-6 -26 9 -9 23 -13 33 -10 12 4 10 0 -5 -13 -30 -25 -29 -33 3 -25 21 5 25 3
22 -12 -5 -28 24 -23 39 6 l13 25 0 -27 c0 -45 -56 -88 -75 -58 -10 16 -38 12
-32 -5 4 -8 2 -17 -4 -21 -6 -3 -8 -13 -5 -21 4 -8 -13 -33 -44 -64 -37 -37
-56 -49 -79 -49 -42 0 -46 15 -15 55 l27 35 -32 11 c-25 9 -29 14 -20 25 15
18 35 18 43 -1 5 -15 26 -21 26 -7 0 4 -9 22 -21 41 -15 25 -23 31 -32 22 -15
-15 -57 -14 -57 2 0 6 10 28 21 47 21 33 22 34 30 13 7 -20 9 -21 43 -5 33 15
48 32 28 32 -5 0 -17 7 -28 15 -18 13 -18 14 5 8 40 -10 19 20 -25 36 -21 8
-40 15 -41 16 -9 4 20 80 41 108 l27 35 39 -19 c21 -10 42 -29 46 -41z m270
-80 l29 -31 -32 22 c-18 12 -33 27 -33 32 0 14 4 11 36 -23z m-246 -345 c0
-19 -3 -24 -10 -17 -6 6 -8 18 -4 27 9 24 14 21 14 -10z m-36 -52 c-6 -6 -24
19 -24 34 1 6 7 1 15 -9 8 -11 12 -22 9 -25z m-63 18 c-17 -7 -22 -15 -18 -29
7 -26 -10 -26 -18 0 -3 11 -12 20 -18 21 -22 1 27 18 53 18 l25 0 -24 -10z
m-64 -41 c-3 -8 -6 -5 -6 6 -1 11 2 17 5 13 3 -3 4 -12 1 -19z m253 -218 c-80
-65 -143 -110 -152 -110 -6 0 10 16 35 35 25 19 50 43 55 52 5 9 25 22 43 28
47 17 47 17 19 -5z"/>
<path d="M965 1090 c-3 -5 1 -10 9 -10 9 0 16 5 16 10 0 6 -4 10 -9 10 -6 0
-13 -4 -16 -10z"/>
<path d="M1407 1399 c-10 -18 -16 -34 -13 -36 9 -9 56 32 53 46 -4 26 -22 21
-40 -10z"/>
<path d="M1652 1387 c-28 -29 -28 -53 -1 -67 27 -15 38 -4 14 14 -17 12 -17
14 6 29 33 24 59 22 59 -4 0 -24 23 -21 28 3 9 45 -70 64 -106 25z"/>
<path d="M535 1373 c-4 -13 2 -25 22 -42 24 -21 28 -22 31 -8 2 9 11 17 19 17
13 0 12 5 -7 25 -27 29 -55 32 -65 8z"/>
<path d="M1441 1356 l-23 -25 31 -33 c17 -18 31 -41 31 -50 0 -26 15 -22 39 8
27 34 17 48 -28 41 l-36 -6 23 19 c25 20 28 40 10 58 -17 17 -21 15 -47 -12z"/>
<path d="M497 1324 c-15 -15 -6 -34 23 -49 30 -15 50 -13 50 6 0 5 -7 9 -15 9
-8 0 -15 5 -15 10 0 6 -6 10 -14 10 -8 0 -16 5 -18 11 -2 5 -7 7 -11 3z"/>
<path d="M1730 1315 c-14 -8 -35 -14 -47 -15 -24 0 -33 -33 -13 -45 6 -3 10
-15 10 -27 0 -16 4 -19 23 -13 12 3 40 11 62 17 49 13 47 12 39 32 -5 13 -14
15 -35 11 -36 -8 -38 2 -3 15 26 10 28 33 3 37 -8 2 -25 -4 -39 -12z m-10 -55
c0 -5 -9 -10 -21 -10 -11 0 -17 5 -14 10 3 6 13 10 21 10 8 0 14 -4 14 -10z"/>
<path d="M232 1308 c-7 -7 -12 -24 -12 -39 0 -35 31 -47 65 -25 30 20 35 20
35 1 0 -8 -4 -15 -10 -15 -5 0 -10 -4 -10 -10 0 -16 22 -12 36 8 36 47 -3 83
-55 51 -38 -23 -41 -23 -41 -4 0 8 5 15 10 15 6 0 10 7 10 15 0 18 -12 19 -28
3z"/>
<path d="M460 1250 c-9 -17 -6 -22 25 -37 43 -21 50 -15 29 25 -18 37 -38 41
-54 12z"/>
<path d="M1806 1212 c-3 -6 -31 -14 -62 -18 -60 -7 -72 -31 -13 -26 l34 3 -30
-25 c-16 -13 -27 -27 -23 -31 12 -12 129 6 125 19 -2 6 -17 10 -32 8 l-27 -3
27 24 c22 19 26 27 18 42 -6 11 -13 14 -17 7z"/>
<path d="M190 1185 c0 -12 5 -15 19 -10 32 10 33 -12 1 -24 -47 -16 -38 -38
18 -44 26 -2 55 -8 65 -12 12 -5 17 -2 17 9 0 10 -9 16 -24 16 -37 0 -41 17
-6 25 42 9 38 31 -7 39 -21 3 -48 9 -60 12 -17 5 -23 2 -23 -11z"/>
<path d="M1733 1076 c-23 -20 -26 -28 -17 -43 6 -10 27 -22 47 -27 67 -17 116
42 65 78 -32 23 -63 20 -95 -8z m97 -25 c0 -13 -55 -24 -80 -16 -11 4 -18 11
-15 16 8 12 95 12 95 0z"/>
<path d="M270 1072 c0 -4 5 -13 12 -20 9 -9 9 -15 -1 -24 -10 -11 -15 -10 -25
5 -16 21 -36 22 -36 1 0 -9 -6 -14 -12 -11 -7 2 -12 14 -10 26 1 15 -3 21 -10
19 -7 -3 -14 -22 -16 -44 l-3 -40 68 2 68 3 3 35 c2 27 -2 37 -17 46 -12 6
-21 7 -21 2z"/>
<path d="M1716 983 c-3 -3 -6 -24 -6 -45 0 -28 4 -38 16 -38 10 0 7 -7 -12
-23 -23 -20 -25 -26 -15 -44 27 -51 131 -48 131 3 0 23 -33 54 -59 54 -14 0
-40 28 -41 43 0 5 26 7 57 5 49 -2 58 0 61 15 3 14 -4 17 -43 17 -25 0 -54 4
-64 10 -10 5 -21 6 -25 3z m80 -137 c16 -12 16 -16 4 -20 -20 -8 -73 7 -78 22
-5 17 50 15 74 -2z"/>
<path d="M172 948 c3 -7 18 -14 34 -16 45 -5 51 -20 10 -27 -34 -7 -48 -27
-27 -40 15 -9 123 43 119 57 -2 6 -31 17 -64 24 -76 16 -76 16 -72 2z"/>
<path d="M290 854 c0 -4 8 -13 18 -20 15 -12 15 -15 2 -24 -19 -13 -30 -13
-30 0 0 6 -4 10 -10 10 -5 0 -10 -6 -10 -14 0 -20 -30 -29 -36 -11 -3 8 -3 19
1 25 3 5 -1 10 -9 10 -9 0 -16 -6 -16 -14 0 -14 20 -76 25 -76 1 0 19 7 38 15
20 8 48 15 62 15 28 0 28 3 4 68 -8 19 -39 32 -39 16z"/>
<path d="M1676 771 c-17 -18 -15 -61 2 -61 4 0 17 -3 30 -6 16 -5 22 -2 22 9
0 8 -9 17 -20 20 -23 6 -27 27 -6 27 29 0 66 -20 66 -35 0 -8 -4 -15 -10 -15
-5 0 -10 -4 -10 -10 0 -18 29 -11 40 10 30 55 -71 109 -114 61z"/>
<path d="M251 706 c-10 -11 -8 -23 9 -56 22 -43 41 -57 61 -44 8 4 4 11 -12
19 -23 13 -23 13 15 29 21 9 45 16 52 16 17 0 18 22 3 37 -8 8 -22 4 -52 -13
-53 -30 -59 -30 -51 1 7 28 -7 33 -25 11z"/>
<path d="M1636 693 c-13 -14 -4 -34 19 -45 16 -7 29 -25 37 -49 13 -45 32 -42
22 3 -6 28 -4 30 15 25 14 -3 24 1 31 13 12 23 -2 34 -30 25 -13 -4 -34 1 -55
13 -18 11 -36 18 -39 15z"/>
<path d="M1607 634 c-8 -8 1 -24 14 -24 5 0 9 7 9 15 0 15 -12 20 -23 9z"/>
<path d="M382 608 c-7 -7 -12 -27 -12 -45 0 -18 -4 -33 -10 -33 -5 0 -10 12
-10 27 0 25 -1 26 -16 11 -21 -21 -3 -58 29 -58 31 0 47 18 47 52 0 15 5 28
10 28 6 0 10 -9 10 -20 0 -11 4 -20 8 -20 18 0 21 14 6 41 -15 30 -42 37 -62
17z"/>
<path d="M1573 542 c-31 -3 -33 -5 -33 -43 0 -36 2 -40 20 -35 11 3 29 9 40
12 21 6 23 15 12 49 -6 16 -14 19 -39 17z"/>
<path d="M496 462 c-15 -3 -17 -10 -12 -35 8 -39 8 -39 48 -35 33 3 34 4 26
34 -8 32 -28 43 -62 36z"/>
<path d="M1395 374 c14 -20 25 -43 25 -51 0 -27 -25 -8 -45 35 -24 50 -35 53
-35 9 0 -44 38 -82 73 -73 14 3 27 12 30 21 9 21 -12 74 -33 85 -35 19 -39 10
-15 -26z"/>
<path d="M685 330 c-49 -42 -55 -53 -31 -58 9 -2 16 1 16 7 0 21 21 11 30 -14
5 -14 16 -25 25 -25 12 0 15 13 15 65 0 36 -2 65 -4 65 -3 0 -25 -18 -51 -40z
m25 -20 c0 -5 -2 -10 -4 -10 -3 0 -8 5 -11 10 -3 6 -1 10 4 10 6 0 11 -4 11
-10z"/>
<path d="M1258 359 c-10 -5 -18 -15 -18 -20 0 -6 8 -9 18 -7 13 3 20 -6 27
-37 7 -26 17 -41 29 -43 16 -3 18 0 12 19 -4 13 -10 41 -13 62 -6 39 -21 46
-55 26z"/>
<path d="M1475 361 c-7 -12 12 -24 25 -16 11 7 4 25 -10 25 -5 0 -11 -4 -15
-9z"/>
<path d="M1152 327 c-7 -8 -8 -31 -4 -62 7 -49 8 -50 42 -50 l35 0 -3 49 c-1
27 -7 55 -13 63 -14 17 -43 17 -57 0z m38 -23 c0 -8 -4 -12 -10 -9 -5 3 -10
10 -10 16 0 5 5 9 10 9 6 0 10 -7 10 -16z m10 -59 c0 -8 -4 -15 -10 -15 -5 0
-10 7 -10 15 0 8 5 15 10 15 6 0 10 -7 10 -15z"/>
<path d="M846 289 c-4 -24 -12 -49 -17 -56 -16 -19 -1 -33 36 -33 36 0 60 17
70 51 9 28 -24 73 -57 77 -23 3 -26 -1 -32 -39z m42 -61 l-13 -23 -3 26 c-2
14 3 38 10 55 l12 29 4 -32 c2 -18 -3 -42 -10 -55z"/>
<path d="M1059 316 c-2 -2 -2 -32 -1 -66 4 -56 6 -61 25 -58 13 2 21 10 20 18
-9 81 -16 110 -27 110 -7 0 -15 -2 -17 -4z"/>
<path d="M762 239 c2 -6 8 -10 13 -10 5 0 11 4 13 10 2 6 -4 11 -13 11 -9 0
-15 -5 -13 -11z"/>
<path d="M940 205 c0 -9 5 -15 11 -13 6 2 11 8 11 13 0 5 -5 11 -11 13 -6 2
-11 -4 -11 -13z"/>
</g>
</svg>
